<svg width="24" height="25" viewBox="0 0 24 25" fill="none" xmlns="http://www.w3.org/2000/svg">
<path fill-rule="evenodd" clip-rule="evenodd" d="M22.6752 0.5H1.3248C0.5928 0.5 0 1.0928 0 1.8248V23.1752C0 23.9072 0.5928 24.5 1.3248 24.5H12.8184V15.206H9.6912V11.5844H12.8184V8.912C12.8184 5.8112 14.712 4.124 17.478 4.124C18.8028 4.124 19.9404 4.2224 20.2728 4.2668V7.5068H18.3552C16.8504 7.5068 16.56 8.222 16.56 9.2708V11.5832H20.1468L19.6788 15.2048H16.5588V24.5H22.6752C23.4072 24.5 24 23.9072 24 23.1752V1.8248C24 1.0928 23.4072 0.5 22.6752 0.5Z" fill="#00F5F5"/>
</svg>
