<svg width="24" height="24" viewBox="0 0 24 24" fill="none" xmlns="http://www.w3.org/2000/svg">
<g id="At">
<g id="At_2">
<path id="Vector" d="M12 15.7495C14.0711 15.7495 15.75 14.0706 15.75 11.9995C15.75 9.92844 14.0711 8.24951 12 8.24951C9.92893 8.24951 8.25 9.92844 8.25 11.9995C8.25 14.0706 9.92893 15.7495 12 15.7495Z" stroke="white" stroke-width="2" stroke-linecap="round" stroke-linejoin="round"/>
<path id="Vector_2" d="M16.9769 19.4997C15.3061 20.6086 13.3127 21.1278 11.3132 20.9748C9.3137 20.8218 7.42253 20.0055 5.93979 18.6553C4.45704 17.3052 3.46765 15.4985 3.12861 13.522C2.78956 11.5455 3.12028 9.51242 4.06829 7.74529C5.0163 5.97816 6.52729 4.57822 8.36152 3.76762C10.1958 2.95702 12.2482 2.78217 14.1931 3.27083C16.138 3.75949 17.864 4.88366 19.0973 6.46497C20.3305 8.04628 21.0004 9.99416 21.0006 11.9995C21.0006 14.0706 20.2506 15.7495 18.3756 15.7495C16.5006 15.7495 15.7506 14.0706 15.7506 11.9995V8.24952" stroke="white" stroke-width="2" stroke-linecap="round" stroke-linejoin="round"/>
</g>
</g>
</svg>
