<svg width="20" height="20" viewBox="0 0 20 20" fill="none" xmlns="http://www.w3.org/2000/svg">
<path d="M14.9769 17.4997C13.3061 18.6086 11.3127 19.1278 9.31322 18.9748C7.3137 18.8218 5.42253 18.0055 3.93979 16.6553C2.45704 15.3052 1.46765 13.4985 1.12861 11.522C0.789565 9.54553 1.12028 7.51242 2.06829 5.74529C3.0163 3.97816 4.52729 2.57822 6.36152 1.76762C8.19575 0.957015 10.2482 0.782171 12.1931 1.27083C14.138 1.75949 15.864 2.88366 17.0973 4.46497C18.3305 6.04628 19.0004 7.99416 19.0006 9.99952C19.0006 12.0706 18.2506 13.7495 16.3756 13.7495C14.5006 13.7495 13.7506 12.0706 13.7506 9.99952V6.24952" stroke="white" stroke-width="2" stroke-linecap="round" stroke-linejoin="round"/>
</svg>
