<svg width="24" height="25" viewBox="0 0 24 25" fill="none" xmlns="http://www.w3.org/2000/svg">
<path d="M20 0.5H4C1.73333 0.5 0 2.23333 0 4.5V20.5C0 22.7667 1.73333 24.5 4 24.5H20C22.2667 24.5 24 22.7667 24 20.5V4.5C24 2.23333 22.2667 0.5 20 0.5ZM12 8.5C14.2667 8.5 16 10.2333 16 12.5C16 14.7667 14.2667 16.5 12 16.5C9.73333 16.5 8 14.7667 8 12.5C8 10.2333 9.73333 8.5 12 8.5ZM17.0667 5.83333C17.0667 4.9 17.8667 4.23333 18.6667 4.23333C19.4667 4.23333 20.2667 5.03333 20.2667 5.83333C20.2667 6.63333 19.6 7.43333 18.6667 7.43333C17.7333 7.43333 17.0667 6.76667 17.0667 5.83333ZM20 21.8333H4C3.2 21.8333 2.66667 21.3 2.66667 20.5V12.5H5.33333C5.33333 16.2333 8.26667 19.1667 12 19.1667C15.7333 19.1667 18.6667 16.2333 18.6667 12.5H21.3333V20.5C21.3333 21.3 20.8 21.8333 20 21.8333Z" fill="#00F5F5"/>
</svg>
