<svg width="24" height="25" viewBox="0 0 24 25" fill="none" xmlns="http://www.w3.org/2000/svg">
<path d="M21.75 0.5H2.25C1.0125 0.5 0 1.5125 0 2.75V22.25C0 23.4875 1.0125 24.5 2.25 24.5H21.75C22.9875 24.5 24 23.4875 24 22.25V2.75C24 1.5125 22.9875 0.5 21.75 0.5ZM19.4385 17.3L17.244 17.333C17.244 17.333 16.77 17.4275 16.152 17C15.3315 16.4375 14.5575 14.9705 13.953 15.1625C13.344 15.3545 13.362 16.6715 13.362 16.6715C13.362 16.6715 13.3665 16.9535 13.2255 17.102C13.0755 17.2655 12.7755 17.2985 12.7755 17.2985H11.796C11.796 17.2985 9.63 17.4305 7.722 15.4415C5.64 13.2755 3.804 8.978 3.804 8.978C3.804 8.978 3.696 8.696 3.813 8.561C3.9435 8.4065 4.296 8.3975 4.296 8.3975L6.645 8.384C6.645 8.384 6.8655 8.4215 7.0245 8.5385C7.1565 8.633 7.2255 8.8145 7.2255 8.8145C7.2255 8.8145 7.605 9.776 8.1075 10.643C9.087 12.335 9.546 12.7055 9.879 12.527C10.362 12.2645 10.2165 10.1315 10.2165 10.1315C10.2165 10.1315 10.2255 9.3575 9.9735 9.0155C9.777 8.7485 9.4065 8.669 9.2475 8.6495C9.1155 8.63 9.3315 8.3255 9.6135 8.186C10.035 7.979 10.7805 7.9655 11.6625 7.9745C12.3465 7.979 12.549 8.0255 12.816 8.087C13.6275 8.2835 13.35 9.038 13.35 10.8485C13.35 11.4305 13.2465 12.245 13.6635 12.512C13.842 12.629 14.2815 12.53 15.384 10.661C15.9045 9.7745 16.2975 8.735 16.2975 8.735C16.2975 8.735 16.3815 8.5475 16.5135 8.468C16.65 8.3885 16.833 8.4125 16.833 8.4125L19.3035 8.399C19.3035 8.399 20.0445 8.3105 20.166 8.648C20.292 8.999 19.89 9.8195 18.882 11.165C17.2275 13.373 17.04 13.166 18.4185 14.441C19.731 15.6605 20.0025 16.2545 20.0505 16.3295C20.5845 17.2295 19.4415 17.3 19.4415 17.3H19.4385Z" fill="#00F5F5"/>
</svg>
