<svg width="180" height="60" viewBox="0 0 180 60" fill="none" xmlns="http://www.w3.org/2000/svg">
<g clip-path="url(#clip0_325_1396)">
<path d="M34.79 16.6347L28.3292 34.0716H20.6267C18.4901 34.0716 16.4055 33.8778 14.3726 33.4903C12.3393 33.1031 10.5127 32.4249 8.89304 31.4562C7.27371 30.4872 5.97232 29.1753 4.99039 27.5193C4.00815 25.8637 3.51688 23.7678 3.51688 21.2316C3.51688 19.5409 3.87914 17.7969 4.60275 16.0003C5.32636 14.2037 6.30829 12.5659 7.54915 11.0865C8.78943 9.60653 10.2195 8.4003 11.8391 7.46653C13.4591 6.53341 15.1823 6.06654 17.0086 6.06654H38.357C37.358 7.40525 36.3498 8.66494 35.333 9.84438C34.3165 11.0247 33.2049 12.1428 31.9989 13.2H18.5595C18.008 13.2 17.4736 13.3493 16.957 13.6487C16.4397 13.9481 15.9662 14.3449 15.5351 14.8381C15.1047 15.3309 14.7171 15.8856 14.3726 16.5021C14.0277 17.119 13.7523 17.7265 13.5453 18.3253C13.2699 19.2413 13.1313 19.9634 13.1313 20.4918C13.1313 21.1609 13.2955 21.8741 13.6227 22.6316C13.95 23.389 14.3808 24.0849 14.9148 24.719C15.4489 25.3528 16.035 25.8813 16.673 26.3044C17.3104 26.7265 17.9389 26.9381 18.5595 26.9381H21.6089L22.7978 23.5037H16.957V23.4509C16.9909 23.3453 17.2067 23.0018 17.6029 22.4206C17.9991 21.839 18.4733 21.1878 19.0241 20.4656C19.5757 19.7434 20.1531 19.0206 20.756 18.2993C21.3591 17.5765 21.9018 17.0221 22.3847 16.6347H34.79ZM142.812 52.9487L143.2 53.0931L143.64 53.2478C143.997 53.3662 144.348 53.4787 144.709 53.5865C145.959 53.9318 147.099 54.1706 148.377 54.3494C148.898 54.4084 149.391 54.4618 149.913 54.4981C150.3 54.5181 150.673 54.5359 151.059 54.5456L151.887 54.5462C152.24 54.5365 152.591 54.5222 152.946 54.504C153.537 54.4584 154.097 54.4062 154.686 54.3325L155.429 54.2212L156.079 54.1059L156.664 53.984C157.329 53.8312 157.97 53.6603 158.625 53.4675C158.984 53.3518 159.336 53.235 159.692 53.1112L160.055 52.9775L160.673 52.7353C160.828 52.6725 161.03 52.5862 161.292 52.4706L161.546 52.3594L161.972 52.1581C162.235 52.0328 162.457 51.9244 162.642 51.8306C162.981 51.6531 163.309 51.4716 163.644 51.2859L163.955 51.1053C164.496 50.7765 165.015 50.4472 165.536 50.0875L166.089 49.6884C166.454 49.4149 166.803 49.1406 167.156 48.8518L167.623 48.4513L168.083 48.0456L168.624 47.5356L169.117 47.0425C169.383 46.7647 169.632 46.4947 169.891 46.209C170.318 45.7178 170.72 45.2328 171.12 44.7147L171.117 44.7128C171.283 44.4947 171.442 44.2806 171.602 44.0569C171.72 43.8947 171.842 43.7244 171.918 43.6013C172.09 43.2618 172.468 42.7497 172.685 42.3928C172.95 41.9365 173.204 41.4834 173.451 41.0169L173.723 40.469C173.939 40.0128 174.143 39.5662 174.343 39.1025L174.842 37.8569L179.373 39.5603L179.435 39.5759L178.711 41.41L178.697 41.4053C178.46 41.9428 178.217 42.4718 177.97 43.0053L177.958 42.9997L177.599 43.72L177.585 43.7147C176.958 44.9072 176.247 46.0241 175.471 47.1193L175.481 47.1309L174.933 47.8503L174.949 47.8621L174.362 48.5725L174.373 48.5847L174.146 48.8462L174.182 48.8584L173.684 49.3944L173.582 49.5175L173.575 49.5116L172.935 50.1997L172.969 50.2197C172.269 50.8921 171.581 51.5509 170.87 52.2081L170.874 52.2134L170.788 52.2837L170.713 52.3534L170.709 52.349L170.017 52.915L170.031 52.934L169.714 53.1703L169.717 53.1762L169.395 53.414L169.127 53.629L169.131 53.6331L169.059 53.6828L168.939 53.779L168.933 53.7709C168.544 54.0437 168.158 54.3162 167.761 54.5787L167.771 54.5928L165.956 55.7212L165.949 55.7028L165.506 55.9622L165.495 55.9506C165.087 56.175 164.668 56.3868 164.256 56.6028L164.251 56.5975L164.039 56.7056L164.03 56.7C163.479 56.9572 162.927 57.2018 162.371 57.4497L162.369 57.4431L162.239 57.4997L162.232 57.4818C161.995 57.5787 161.679 57.6668 161.474 57.7753C161.223 57.8634 160.974 57.9522 160.723 58.0353L160.732 58.0572L160.24 58.2L160.245 58.2153L159.848 58.3234L159.559 58.419L159.554 58.4037L158.064 58.81L158.057 58.7894C156.888 59.0656 155.711 59.2575 154.52 59.3875V59.4053L153.256 59.4956L153.252 59.5015L152.582 59.5269V59.5487L151.859 59.5469L151.855 59.5531C151.296 59.5478 150.743 59.5394 150.184 59.5228V59.5372L149.877 59.5137C149.192 59.4934 148.48 59.3953 147.793 59.3287V59.3162L147.525 59.2819L147.522 59.285L147.395 59.265L146.662 59.1715L146.67 59.1525L146.495 59.1253L146.493 59.1353L146.303 59.0956L146.185 59.0772V59.0706C145.059 58.8337 144.011 58.574 142.891 58.2731L142.477 58.1268L142.474 58.145L141.69 57.854L141.507 57.7912L141.504 57.8047L141.253 57.7031L141.068 57.6387L141.069 57.6347L139.89 57.1487L139.885 57.1656L139.601 57.0306L139.276 56.8965L139.285 56.8797C138.462 56.4865 137.685 56.0862 136.875 55.6565L136.883 55.6409C135.928 55.094 134.865 54.2237 134.017 53.7694L134.003 53.785C133.377 53.2844 132.757 52.7962 132.153 52.2697L132.144 52.2665L131.969 52.1112L131.958 52.1228C131.044 51.2569 130.26 50.4678 129.391 49.5503L129.399 49.5387L128.775 48.8469L128.783 48.8413C128.264 48.1725 127.765 47.5244 127.274 46.8349L127.252 46.8584L126.925 46.3431L126.778 46.1372L126.788 46.1287L125.856 44.659L125.877 44.6484L125.528 44.0541L125.536 44.0441L125.323 43.649L125.305 43.6556L125.105 43.2456L124.823 42.7231L124.846 42.7141C124.441 41.8803 124.093 41.0493 123.734 40.1909L123.738 40.1887L123.588 39.7606L123.472 39.4581L123.476 39.4525L123.257 38.8572L123.27 38.8513L123.08 38.2684L123.084 38.26C122.998 37.9881 122.918 37.7147 122.839 37.4406L122.821 37.4431L122.744 37.1169L122.684 36.9153L122.695 36.9113C122.436 35.8325 122.233 34.8331 122.021 33.7378L122.051 33.7344C121.995 33.3747 121.947 33.0184 121.904 32.6581L121.883 32.6597L121.8 31.6078H121.784L121.759 31.0231L121.682 30.0065L121.7 30.0113C121.701 29.4447 121.698 28.8803 121.713 28.3149L121.68 28.3262L121.742 27.4387H121.73L121.76 27.1031L121.769 26.9031H121.773L121.787 26.6165H121.783L122.003 24.7169H122.012L122.046 24.4459H122.058L122.137 23.9441L122.119 23.9397C122.288 23.1272 122.447 22.3434 122.645 21.5413L122.637 21.5359L122.749 21.1384L122.738 21.1353L122.939 20.4649L123.047 20.08H123.052L123.217 19.5344H123.224L123.631 18.3034L123.643 18.31L123.848 17.7147L123.874 17.7297C126.166 11.9731 129.847 7.3987 134.848 3.88406L134.82 3.8375C134.773 3.7747 134.74 3.7175 134.712 3.66934C134.712 3.65654 134.55 3.41494 134.535 3.38998L134.208 2.91838L133.844 2.44526L133.445 1.96782L132.022 0.39782L147.578 0.502773L136.778 11.9393L136.686 10.0644C136.658 9.63182 136.627 9.19966 136.563 8.77094C136.19 9.05718 135.828 9.35438 135.467 9.6575C134.555 10.4597 133.732 11.2693 132.925 12.1809C132.706 12.4387 132.489 12.6959 132.274 12.9572C132.006 13.2941 131.749 13.6316 131.493 13.9772C131.159 14.4534 130.841 14.919 130.528 15.4103L130.173 15.9897C129.986 16.3181 129.802 16.6462 129.62 16.9781C129.366 17.4613 129.132 17.9447 128.901 18.4403C128.576 19.1828 128.293 19.8878 128.023 20.6487C127.814 21.2793 127.626 21.8903 127.45 22.5306L127.306 23.1056L127.171 23.689C126.997 24.5325 126.867 25.3344 126.76 26.189C126.65 27.2903 126.597 28.2962 126.594 29.4013L126.608 29.9781C126.657 31.0453 126.748 32.0275 126.901 33.0859L126.998 33.679C127.13 34.3356 127.264 34.9697 127.425 35.6225L127.544 36.0593L127.757 36.7706C127.842 37.0449 127.93 37.3203 128.027 37.5997L128.192 38.0669L128.346 38.4772C128.461 38.6965 128.602 39.0537 128.729 39.3718C128.837 39.6406 128.934 39.8709 129.055 40.1334L129.387 40.8103L129.739 41.4825L130.116 42.1493L130.467 42.7341C131.382 44.1813 132.307 45.3944 133.457 46.6587C133.83 47.0513 134.193 47.4175 134.584 47.7947L135.382 48.5147C135.66 48.7509 135.931 48.9747 136.215 49.2049C136.406 49.3562 136.611 49.5141 136.828 49.6762L137.322 50.0347L137.806 50.3621L138.294 50.6853L138.825 51.0113L139.355 51.3253C139.728 51.5303 140.093 51.7293 140.471 51.9234L140.832 52.1003C141.501 52.4131 142.128 52.6859 142.812 52.9487ZM121.955 25.4821L121.946 25.4397L121.943 25.4393C121.952 25.4665 121.959 25.5025 121.955 25.4821ZM138.709 32.1065H145.363L144.582 35.5075H134.6L135.479 31.6828C135.721 30.6269 136.295 29.7272 137.199 28.9784C138.103 28.2297 139.069 27.8553 140.1 27.8553H142.595C142.711 27.8553 142.82 27.8149 142.918 27.7337C143.02 27.6493 143.082 27.5509 143.11 27.4318C143.137 27.3131 143.12 27.2113 143.056 27.13C142.996 27.0459 142.906 27.0053 142.79 27.0053H136.553L137.334 23.6044H143.571C144.605 23.6044 145.399 23.9784 145.958 24.7275C146.52 25.4756 146.679 26.3753 146.437 27.4318C146.195 28.4853 145.621 29.3878 144.717 30.1334C143.813 30.8818 142.847 31.2565 141.814 31.2565H139.319C139.202 31.2565 139.096 31.2972 138.995 31.3813C138.897 31.4625 138.834 31.5641 138.806 31.6828L138.709 32.1065ZM148.148 23.6044H151.476L150.109 29.5559H153.435L154.803 23.6044H158.13L156.762 29.5559H157.594L156.813 32.9569H155.981L155.396 35.5075H152.068L152.654 32.9569H146L148.148 23.6044ZM163.849 31.2753L162.872 35.5269H159.545L162.279 23.6221H165.607L164.63 27.8741H168.789L172.113 27.8872L170.359 35.5269H167.032L168.008 31.2753H163.849ZM4.36491 39.2621L0.0859375 51.2725H11.2372C11.2519 51.2725 11.3442 51.1972 11.5145 51.0462C11.6841 50.8953 11.8798 50.7097 12.1017 50.4909C12.3231 50.2716 12.549 50.0416 12.7782 49.7997C13.0069 49.5581 13.1879 49.3465 13.3212 49.1649C13.3356 49.15 13.3725 49.0972 13.4319 49.0065C13.4909 48.9162 13.5502 48.8178 13.6092 48.7118C13.6682 48.6062 13.7271 48.5037 13.7865 48.4059C13.8455 48.3081 13.8825 48.2437 13.8971 48.2137H5.40676L5.89436 46.8534H10.3057L13.4762 43.7944H8.355L6.24929 45.8793L7.51277 42.3213H14.341C14.4587 42.3213 14.6473 42.2006 14.906 41.9587C15.1646 41.7172 15.4309 41.4303 15.7042 41.0978C15.9775 40.7653 16.2358 40.4293 16.48 40.0897C16.724 39.7497 16.8973 39.4737 17.0009 39.2621H4.36491ZM18.4421 51.2725L21.6343 48.3947L22.7868 51.2725H27.5087L25.1368 45.2444L31.7654 39.2621H27.0208L23.8733 42.0949L22.7648 39.2621H18.0205L20.3928 45.2444L13.7202 51.2725H18.4421ZM28.5289 51.2725H32.7849L34.3367 46.9218H40.5664C41.069 46.9218 41.5936 46.8162 42.1404 46.6047C42.6868 46.3931 43.1893 46.0944 43.6476 45.709C44.1061 45.3237 44.4831 44.8669 44.7781 44.3381C45.0737 43.8093 45.222 43.2281 45.222 42.5934C45.222 42.2913 45.1886 41.9475 45.122 41.5625C45.0557 41.1769 44.937 40.8144 44.7671 40.4744C44.5977 40.1347 44.3681 39.8475 44.0801 39.6134C43.7916 39.379 43.426 39.2621 42.9827 39.2621H32.8072L28.5289 51.2725ZM35.9551 42.3437H40.4997C40.5291 42.3437 40.5994 42.4081 40.7107 42.5369C40.8214 42.6653 40.899 42.7669 40.9436 42.8431C40.9436 42.8431 40.9467 42.8578 40.9543 42.8878C40.9619 42.9181 40.9726 42.9406 40.9877 42.9559L40.9436 43.0693C40.928 43.1147 40.895 43.179 40.8434 43.2618C40.792 43.3447 40.7361 43.4318 40.677 43.5225C40.6184 43.6134 40.5627 43.6921 40.5107 43.7606C40.4591 43.8284 40.4254 43.8621 40.4114 43.8621H36.8639L34.7363 45.7884L35.9551 42.3437ZM43.4929 51.2725H47.7489L49.212 47.1487L49.456 46.9672L54.0226 51.2725H58.7669L54.4216 46.7178C55.0131 46.6725 55.6447 46.5856 56.317 46.4572C56.9892 46.3287 57.6028 46.1172 58.1567 45.8225C58.7116 45.5281 59.1732 45.1316 59.5428 44.6328C59.9121 44.1344 60.0973 43.5 60.0973 42.729C60.0973 42.3818 60.0638 42.0044 59.9974 41.5965C59.931 41.1884 59.8088 40.8109 59.6314 40.4631C59.4542 40.1153 59.2065 39.8284 58.8889 39.6021C58.5709 39.3756 58.161 39.2621 57.6584 39.2621H47.7709L43.4929 51.2725ZM55.7963 42.9787C55.7963 43.1293 55.7481 43.3069 55.6523 43.5109C55.5561 43.7149 55.3971 43.8172 55.1752 43.8172H51.6283L49.6774 45.8341L50.9417 42.299H55.3971C55.5747 42.299 55.6854 42.3403 55.7301 42.4234C55.774 42.5065 55.7963 42.6084 55.7963 42.729V42.9787ZM63.1339 39.2621L58.8556 51.2725H70.0062C70.0212 51.2725 70.1139 51.1972 70.2835 51.0462C70.4534 50.8953 70.6491 50.7097 70.871 50.4909C71.0924 50.2716 71.3177 50.0416 71.547 49.7997C71.7763 49.5581 71.9575 49.3465 72.0902 49.1649C72.1049 49.15 72.1422 49.0972 72.2009 49.0065C72.2605 48.9162 72.3192 48.8178 72.3782 48.7118C72.4378 48.6062 72.4968 48.5037 72.5558 48.4059C72.6148 48.3081 72.6518 48.2437 72.6665 48.2137H64.176L64.6634 46.8534H69.0753L72.2455 43.7944H67.1246L65.0183 45.8793L66.2818 42.3213H73.1098C73.2281 42.3213 73.4167 42.2006 73.6756 41.9587C73.9339 41.7172 74.1999 41.4303 74.4732 41.0978C74.7468 40.7653 75.0054 40.4293 75.2497 40.0897C75.493 39.7497 75.667 39.4737 75.7703 39.2621H63.1339ZM83.2417 47.4653V47.3297C83.2417 47.2087 83.219 47.0844 83.1744 46.9556C83.1298 46.8275 83.0492 46.7631 82.9302 46.7631H78.4968C78.054 46.7631 77.6547 46.6534 77.2995 46.4347C76.9452 46.2153 76.6389 45.9359 76.3799 45.5962C76.1212 45.2559 75.9256 44.8821 75.7926 44.4741C75.6593 44.0665 75.5927 43.6662 75.5927 43.2731C75.5927 42.9109 75.696 42.499 75.903 42.0381C76.11 41.5772 76.3765 41.1393 76.7011 40.7237C77.0262 40.3084 77.3957 39.9613 77.81 39.6813C78.2236 39.4018 78.6369 39.2621 79.0509 39.2621H90.3572C90.0168 39.7759 89.6294 40.2897 89.1935 40.8031C88.7575 41.3172 88.2731 41.8303 87.7417 42.3437H80.4259C80.2631 42.3437 80.1222 42.4572 80.0041 42.6844C79.8867 42.9109 79.8272 43.0921 79.8272 43.2281V43.3409C79.8272 43.3562 79.8569 43.3903 79.9156 43.4431C79.9743 43.4962 80.0197 43.5375 80.0487 43.5678C80.1074 43.6278 80.1927 43.6847 80.3038 43.7378C80.4149 43.7903 80.4775 43.8172 80.4924 43.8172H84.7044C85.1771 43.8172 85.5841 43.9341 85.9237 44.1681C86.2634 44.4025 86.5404 44.6969 86.7541 45.0521C86.9693 45.4069 87.1282 45.7884 87.2315 46.1965C87.3348 46.6047 87.3864 46.9821 87.3864 47.3297V47.4653C87.3864 47.8584 87.298 48.2778 87.1203 48.7231C86.9435 49.169 86.7102 49.5803 86.4222 49.9581C86.1342 50.3359 85.8016 50.6493 85.4244 50.899C85.048 51.1478 84.6598 51.2725 84.2607 51.2725H72.9544C73.0291 51.1216 73.1804 50.8797 73.409 50.5475C73.6383 50.2149 73.882 49.879 74.1409 49.5387C74.3992 49.1993 74.6395 48.8972 74.8615 48.6325C75.0831 48.3684 75.2158 48.2359 75.2604 48.2359H82.7972C83.0195 48.2359 83.1486 48.1678 83.1862 48.0321C83.2222 47.8962 83.2417 47.7525 83.2417 47.6016V47.4653ZM97.7176 47.4653V47.3297C97.7176 47.2087 97.6949 47.0844 97.6503 46.9556C97.6065 46.8275 97.5251 46.7631 97.4069 46.7631H92.9735C92.5297 46.7631 92.1306 46.6534 91.7761 46.4347C91.4215 46.2153 91.1148 45.9359 90.8557 45.5962C90.5975 45.2559 90.4018 44.8821 90.2688 44.4741C90.1357 44.0665 90.0692 43.6662 90.0692 43.2731C90.0692 42.9109 90.1725 42.499 90.3791 42.0381C90.5865 41.5772 90.8526 41.1393 91.1774 40.7237C91.5029 40.3084 91.8723 39.9613 92.2863 39.6813C92.6995 39.4018 93.1135 39.2621 93.5275 39.2621H104.834C104.493 39.7759 104.105 40.2897 103.669 40.8031C103.233 41.3172 102.75 41.8303 102.218 42.3437H94.9018C94.739 42.3437 94.5989 42.4572 94.4808 42.6844C94.3626 42.9109 94.3031 43.0921 94.3031 43.2281V43.3409C94.3031 43.3562 94.3328 43.3903 94.3915 43.4431C94.451 43.4962 94.4956 43.5375 94.5254 43.5678C94.5841 43.6278 94.6694 43.6847 94.7797 43.7378C94.8901 43.7903 94.9535 43.8172 94.9683 43.8172H99.1803C99.6538 43.8172 100.06 43.9341 100.4 44.1681C100.739 44.4025 101.016 44.6969 101.231 45.0521C101.445 45.4069 101.604 45.7884 101.708 46.1965C101.811 46.6047 101.863 46.9821 101.863 47.3297V47.4653C101.863 47.8584 101.775 48.2778 101.597 48.7231C101.419 49.169 101.187 49.5803 100.898 49.9581C100.61 50.3359 100.278 50.6493 99.9003 50.899C99.5239 51.1478 99.1357 51.2725 98.7374 51.2725H87.431C87.5046 51.1216 87.6564 50.8797 87.8857 50.5475C88.1142 50.2149 88.3584 49.879 88.6167 49.5387C88.8757 49.1993 89.116 48.8972 89.3375 48.6325C89.5589 48.3684 89.692 48.2359 89.7366 48.2359H97.2739C97.4961 48.2359 97.6253 48.1678 97.6613 48.0321C97.6989 47.8962 97.7176 47.7525 97.7176 47.6016V47.4653ZM41.9796 34.0716H51.9044L56.66 20.7559L72.9425 6.06654H61.8808L54.5408 12.6716L51.9564 6.06654H40.8944L46.7352 20.7559L41.9796 34.0716ZM105.617 34.0716L115.592 6.06654H103.083L90.4182 20.1221L87.7824 6.06654H75.2732L65.2968 34.0716H75.2215L80.8047 18.3253L83.6471 34.0716H87.2135L101.274 18.3253L95.6915 34.0716H105.617Z" fill="#F40C1A"/>
</g>
<defs>
<clipPath id="clip0_325_1396">
<rect width="180" height="60" fill="white"/>
</clipPath>
</defs>
</svg>
